<svg width="53" height="69" viewBox="0 0 53 69" fill="none" xmlns="http://www.w3.org/2000/svg">
<rect x="0.5" y="1.40137" width="51.6871" height="66.1875" fill="#F8F8F8"/>
<path d="M26.3436 6.5C14.2255 6.5 4.39062 19.0417 4.39062 34.4948C4.39062 49.9479 14.2255 62.4896 26.3436 62.4896C38.4616 62.4896 48.2965 49.9479 48.2965 34.4948C48.2965 19.0417 38.4616 6.5 26.3436 6.5ZM15.5208 52.0755C16.4647 49.556 22.2164 47.0924 26.3436 47.0924C30.4707 47.0924 36.2444 49.556 37.1664 52.0755C34.1808 55.099 30.4268 56.8906 26.3436 56.8906C22.2603 56.8906 18.5064 55.099 15.5208 52.0755ZM40.3057 48.0163C37.1664 43.1452 29.5487 41.4935 26.3436 41.4935C23.1384 41.4935 15.5208 43.1452 12.3815 48.0163C10.1423 44.265 8.78121 39.5898 8.78121 34.4948C8.78121 22.1491 16.6623 12.099 26.3436 12.099C36.0248 12.099 43.9059 22.1491 43.9059 34.4948C43.9059 39.5898 42.5449 44.265 40.3057 48.0163ZM26.3436 17.6979C22.0847 17.6979 18.66 22.0651 18.66 27.4961C18.66 32.9271 22.0847 37.2943 26.3436 37.2943C30.6024 37.2943 34.0271 32.9271 34.0271 27.4961C34.0271 22.0651 30.6024 17.6979 26.3436 17.6979ZM26.3436 31.6953C24.5215 31.6953 23.0506 29.8197 23.0506 27.4961C23.0506 25.1725 24.5215 23.2969 26.3436 23.2969C28.1657 23.2969 29.6365 25.1725 29.6365 27.4961C29.6365 29.8197 28.1657 31.6953 26.3436 31.6953Z" fill="#003F7E"/>
<rect x="0.5" y="1.40137" width="51.6871" height="66.1875" stroke="#003F7E"/>
</svg>
